<svg width="20" height="23" viewBox="0 0 20 23" fill="none" xmlns="http://www.w3.org/2000/svg">
<path fill-rule="evenodd" clip-rule="evenodd" d="M1.5 2.5C1.5 1.11929 2.61929 0 4 0H16C17.3807 0 18.5 1.11929 18.5 2.5V2.56301C19.3626 2.78503 20 3.56808 20 4.5C20 5.43327 19.3608 6.21724 18.4962 6.43795C18.5008 6.47469 18.5013 6.51251 18.4974 6.5509L16.86 22.5509C16.8319 22.8256 16.5864 23.0255 16.3117 22.9974C16.037 22.9693 15.8371 22.7238 15.8652 22.4491L17.4974 6.5H2.50261L4.04291 21.5509C4.06902 21.806 4.28388 22 4.54031 22H13.5C13.7761 22 14 22.2239 14 22.5C14 22.7761 13.7761 23 13.5 23H4.54031C3.77101 23 3.12642 22.418 3.0481 21.6527L1.5026 6.5509C1.49867 6.51251 1.49919 6.47469 1.50375 6.43795C0.639236 6.21724 0 5.43327 0 4.5C0 3.56808 0.637386 2.78503 1.5 2.56301V2.5ZM16 1C16.8284 1 17.5 1.67157 17.5 2.5H2.5C2.5 1.67157 3.17157 1 4 1H16ZM2 3.5H18C18.5523 3.5 19 3.94772 19 4.5C19 5.05228 18.5523 5.5 18 5.5H2C1.44772 5.5 1 5.05228 1 4.5C1 3.94772 1.44772 3.5 2 3.5Z" fill="#053D87"/>
<path d="M8 14.5C8 13.3954 8.89543 12.5 10 12.5C11.1046 12.5 12 13.3954 12 14.5C12 15.3306 11.4936 16.044 10.7707 16.3462C10.5159 16.4528 10.3957 16.7456 10.5023 17.0004C10.6088 17.2552 10.9016 17.3754 11.1564 17.2689C12.2383 16.8166 13 15.7478 13 14.5C13 12.8431 11.6569 11.5 10 11.5C8.34315 11.5 7 12.8431 7 14.5C7 15.807 7.83553 16.9176 9.00004 17.3292C9.2604 17.4212 9.54606 17.2847 9.63809 17.0244C9.73011 16.764 9.59365 16.4783 9.33329 16.3863C8.55582 16.1115 8 15.37 8 14.5Z" fill="#053D87"/>
</svg>
