<svg width="20" height="20" viewBox="0 0 20 20" fill="none" xmlns="http://www.w3.org/2000/svg">
<path d="M16.667 15.8335H1.66699V17.5002H16.667V15.8335Z" fill="#053D87"/>
<path d="M16.6673 2.5H3.33398V10.8333C3.33398 12.675 4.82565 14.1667 6.66732 14.1667H11.6673C13.509 14.1667 15.0007 12.675 15.0007 10.8333V8.33333H16.6673C17.5923 8.33333 18.334 7.59167 18.334 6.66667V4.16667C18.334 3.24167 17.5923 2.5 16.6673 2.5ZM13.334 10.8333C13.334 11.75 12.584 12.5 11.6673 12.5H6.66732C5.75065 12.5 5.00065 11.75 5.00065 10.8333V4.16667H7.50065V5.33333L5.99232 6.54167C5.89232 6.61667 5.83398 6.74167 5.83398 6.86667V10.4167C5.83398 10.65 6.01732 10.8333 6.25065 10.8333H9.58398C9.81732 10.8333 10.0007 10.65 10.0007 10.4167V6.86667C10.0007 6.74167 9.94232 6.61667 9.84232 6.54167L8.33398 5.33333V4.16667H13.334V10.8333ZM7.91732 6.06667L9.16732 7.06667V10H6.66732V7.06667L7.91732 6.06667ZM16.6673 6.66667H15.0007V4.16667H16.6673V6.66667Z" fill="#053D87"/>
</svg>
