<svg width="16" height="16" viewBox="0 0 16 16" fill="none" xmlns="http://www.w3.org/2000/svg">
<g clip-path="url(#clip0_56_835)">
<path d="M7.97561 16C3.56712 16 0 12.4217 0 8C0 3.57803 3.56743 0 7.97561 0C12.3841 0 15.9512 3.57834 15.9512 8C15.9512 12.422 12.3838 16 7.97561 16ZM7.97561 1.25C4.25595 1.25 1.24619 4.26922 1.24619 8C1.24619 11.731 4.2562 14.75 7.97561 14.75C11.6953 14.75 14.705 11.7308 14.705 8C14.705 4.26897 11.695 1.25 7.97561 1.25Z" fill="#FFA645"/>
<path d="M7.97563 9.30225C7.6315 9.30225 7.35254 9.02243 7.35254 8.67725V4.65247C7.35254 4.30728 7.6315 4.02747 7.97563 4.02747C8.31977 4.02747 8.59873 4.30731 8.59873 4.6525V8.67725C8.59873 9.02243 8.31977 9.30225 7.97563 9.30225Z" fill="#FFA645"/>
<path d="M7.97594 10.0674C8.44051 10.0674 8.81712 10.4451 8.81712 10.9111C8.81712 11.3771 8.44051 11.7549 7.97594 11.7549C7.51137 11.7549 7.13477 11.3771 7.13477 10.9111C7.13477 10.4451 7.51137 10.0674 7.97594 10.0674Z" fill="#FFA645"/>
</g>
<defs>
<clipPath id="clip0_56_835">
<rect width="15.9512" height="16" fill="white" transform="matrix(1 0 0 -1 0 16)"/>
</clipPath>
</defs>
</svg>
