<svg width="20" height="20" viewBox="0 0 20 20" fill="none" xmlns="http://www.w3.org/2000/svg">
<path d="M17.4997 4.16667C16.5747 3.875 15.558 3.75 14.583 3.75C12.958 3.75 11.208 4.08333 9.99967 5C8.79134 4.08333 7.04134 3.75 5.41634 3.75C3.79134 3.75 2.04134 4.08333 0.833008 5V17.2083C0.833008 17.4167 1.04134 17.625 1.24967 17.625C1.33301 17.625 1.37467 17.5833 1.45801 17.5833C2.58301 17.0417 4.20801 16.6667 5.41634 16.6667C7.04134 16.6667 8.79134 17 9.99967 17.9167C11.1247 17.2083 13.1663 16.6667 14.583 16.6667C15.958 16.6667 17.3747 16.9167 18.5413 17.5417C18.6247 17.5833 18.6663 17.5833 18.7497 17.5833C18.958 17.5833 19.1663 17.375 19.1663 17.1667V5C18.6663 4.625 18.1247 4.375 17.4997 4.16667ZM17.4997 15.4167C16.583 15.125 15.583 15 14.583 15C13.1663 15 11.1247 15.5417 9.99967 16.25V6.66667C11.1247 5.95833 13.1663 5.41667 14.583 5.41667C15.583 5.41667 16.583 5.54167 17.4997 5.83333V15.4167Z" fill="#FFA645"/>
<path d="M14.583 8.75C15.3163 8.75 16.0247 8.825 16.6663 8.96667V7.7C16.008 7.575 15.2997 7.5 14.583 7.5C13.1663 7.5 11.883 7.74167 10.833 8.19167V9.575C11.7747 9.04167 13.083 8.75 14.583 8.75Z" fill="#FFA645"/>
<path d="M10.833 10.4085V11.7918C11.7747 11.2585 13.083 10.9668 14.583 10.9668C15.3163 10.9668 16.0247 11.0418 16.6663 11.1835V9.9168C16.008 9.7918 15.2997 9.7168 14.583 9.7168C13.1663 9.7168 11.883 9.9668 10.833 10.4085Z" fill="#FFA645"/>
<path d="M14.583 11.9419C13.1663 11.9419 11.883 12.1836 10.833 12.6336V14.0169C11.7747 13.4836 13.083 13.1919 14.583 13.1919C15.3163 13.1919 16.0247 13.2669 16.6663 13.4086V12.1419C16.008 12.0086 15.2997 11.9419 14.583 11.9419Z" fill="#FFA645"/>
</svg>
