<svg width="20" height="20" viewBox="0 0 20 20" fill="none" xmlns="http://www.w3.org/2000/svg">
<path d="M14.167 18.3332C15.5503 18.3332 16.667 17.2165 16.667 15.8332C16.667 14.4498 15.5503 13.3332 14.167 13.3332C13.0837 13.3332 12.167 14.0332 11.817 14.9998H7.61699L9.27533 12.4498C9.51699 12.4832 9.75866 12.4998 10.0003 12.4998C10.242 12.4998 10.4837 12.4832 10.7253 12.4498L11.5753 13.7582C11.9253 13.3165 12.3753 12.9665 12.9087 12.7498L12.4087 11.9748C14.4253 11.0582 15.8337 9.03317 15.8337 6.6665H4.16699C4.16699 9.03317 5.57533 11.0582 7.60033 11.9748L4.30866 17.0415C4.05866 17.4248 4.16699 17.9415 4.55033 18.1915C4.93366 18.4415 5.45033 18.3332 5.70033 17.9498L6.53366 16.6582H11.817C12.167 17.6332 13.0837 18.3332 14.167 18.3332ZM14.167 14.9998C14.6253 14.9998 15.0003 15.3748 15.0003 15.8332C15.0003 16.2915 14.6253 16.6665 14.167 16.6665C13.7087 16.6665 13.3337 16.2915 13.3337 15.8332C13.3337 15.3748 13.7087 14.9998 14.167 14.9998ZM6.18366 8.33317H13.817C13.1753 9.79984 11.7003 10.8332 10.0003 10.8332C8.30033 10.8332 6.82533 9.79984 6.18366 8.33317Z" fill="#053D87"/>
<path d="M7.84224 5.83317H8.67557C8.80057 4.87484 8.86724 4.4665 7.93391 3.3665C7.58391 2.94984 7.36724 2.72484 7.55058 1.6665H6.72558C6.55058 2.5915 6.75058 3.37484 7.46724 4.13317C7.65058 4.33317 8.12558 4.6915 7.84224 5.83317Z" fill="#053D87"/>
<path d="M9.90865 5.83317H10.742C10.867 4.87484 10.9336 4.4665 10.0003 3.3665C9.65031 2.94984 9.43365 2.7165 9.61698 1.6665H8.79198C8.61698 2.5915 8.81698 3.37484 9.53365 4.13317C9.72531 4.33317 10.2003 4.6915 9.90865 5.83317Z" fill="#053D87"/>
<path d="M12.0083 5.83317H12.8416C12.9666 4.87484 13.0333 4.4665 12.0999 3.3665C11.7499 2.94984 11.5333 2.72484 11.7166 1.6665H10.8916C10.7166 2.5915 10.9166 3.37484 11.6333 4.13317C11.8166 4.33317 12.2916 4.6915 12.0083 5.83317Z" fill="#053D87"/>
</svg>
