<svg width="20" height="20" viewBox="0 0 20 20" fill="none" xmlns="http://www.w3.org/2000/svg">
<path d="M10.0003 1.6665C5.40033 1.6665 1.66699 5.39984 1.66699 9.99984C1.66699 14.5998 5.40033 18.3332 10.0003 18.3332C14.6003 18.3332 18.3337 14.5998 18.3337 9.99984C18.3337 5.39984 14.6003 1.6665 10.0003 1.6665ZM10.7337 14.7998V15.8332H9.27533V14.7582C8.65866 14.6082 7.28366 14.1165 6.75866 12.2915L8.13366 11.7332C8.18366 11.9165 8.61699 13.4748 10.1337 13.4748C10.9087 13.4748 11.7837 13.0748 11.7837 12.1332C11.7837 11.3332 11.2003 10.9165 9.88366 10.4415C8.96699 10.1165 7.09199 9.58317 7.09199 7.68317C7.09199 7.59984 7.10033 5.68317 9.27533 5.2165V4.1665H10.7337V5.19984C12.267 5.4665 12.8253 6.6915 12.9503 7.05817L11.6337 7.6165C11.542 7.32484 11.142 6.49984 10.0503 6.49984C9.46699 6.49984 8.54199 6.80817 8.54199 7.65817C8.54199 8.44984 9.25866 8.74984 10.742 9.2415C12.742 9.93317 13.2503 10.9498 13.2503 12.1165C13.2503 14.3082 11.167 14.7248 10.7337 14.7998Z" fill="#FFA645"/>
</svg>
