<svg width="66" height="66" viewBox="0 0 66 66" fill="none" xmlns="http://www.w3.org/2000/svg">
<g filter="url(#filter0_d_56_1017)">
<path fill-rule="evenodd" clip-rule="evenodd" d="M62 29C62 45.0163 49.0163 58 33 58C16.9837 58 4 45.0163 4 29C4 12.9837 16.9837 0 33 0C49.0163 0 62 12.9837 62 29ZM40.25 18.125C40.25 22.1291 37.0041 25.375 33 25.375C28.9959 25.375 25.75 22.1291 25.75 18.125C25.75 14.1209 28.9959 10.875 33 10.875C37.0041 10.875 40.25 14.1209 40.25 18.125ZM32.9998 32.625C25.6862 32.625 19.3843 36.9567 16.5198 43.1945C20.5084 47.8211 26.4121 50.75 32.9999 50.75C39.5876 50.75 45.4913 47.8212 49.4798 43.1948C46.6154 36.9568 40.3135 32.625 32.9998 32.625Z" fill="#FFA645"/>
</g>
<defs>
<filter id="filter0_d_56_1017" x="0" y="0" width="66" height="66" filterUnits="userSpaceOnUse" color-interpolation-filters="sRGB">
<feFlood flood-opacity="0" result="BackgroundImageFix"/>
<feColorMatrix in="SourceAlpha" type="matrix" values="0 0 0 0 0 0 0 0 0 0 0 0 0 0 0 0 0 0 127 0" result="hardAlpha"/>
<feOffset dy="4"/>
<feGaussianBlur stdDeviation="2"/>
<feComposite in2="hardAlpha" operator="out"/>
<feColorMatrix type="matrix" values="0 0 0 0 0 0 0 0 0 0 0 0 0 0 0 0 0 0 0.25 0"/>
<feBlend mode="normal" in2="BackgroundImageFix" result="effect1_dropShadow_56_1017"/>
<feBlend mode="normal" in="SourceGraphic" in2="effect1_dropShadow_56_1017" result="shape"/>
</filter>
</defs>
</svg>
