<svg width="20" height="21" viewBox="0 0 20 21" fill="none" xmlns="http://www.w3.org/2000/svg">
<path fill-rule="evenodd" clip-rule="evenodd" d="M0.0681719 18.5207C-0.261261 19.4929 0.658799 20.4248 1.63517 20.1079L15.6001 15.5746C15.8186 15.5036 15.9382 15.269 15.8673 15.0506C15.7964 14.8321 15.5618 14.7125 15.3433 14.7834L1.37833 19.3167C1.05288 19.4223 0.746191 19.1117 0.856001 18.7876L5.92345 3.83247C6.02238 3.54049 6.39347 3.45386 6.61146 3.67185L16.8406 13.901C17.3279 14.3883 18.1179 14.3883 18.6052 13.901L19.6345 12.8717C20.1218 12.3844 20.1218 11.5944 19.6345 11.1071L8.78385 0.256417C8.44196 -0.0854723 7.88765 -0.0854723 7.54576 0.256417L6.40023 1.40195C6.23781 1.56437 6.23781 1.82771 6.40023 1.99014C6.56266 2.15256 6.826 2.15256 6.98842 1.99014L8.13395 0.844609C8.15099 0.827568 8.17862 0.827568 8.19566 0.844609L19.0464 11.6953C19.2088 11.8577 19.2088 12.1211 19.0464 12.2835L18.017 13.3128C17.8546 13.4753 17.5912 13.4753 17.4288 13.3128L7.19965 3.08365C6.54568 2.42968 5.43242 2.68959 5.13562 3.56552L0.0681719 18.5207ZM4.92975 14.0481C5.2546 13.7232 5.78129 13.7232 6.10614 14.0481C6.43099 14.3729 6.43099 14.8996 6.10614 15.2245C5.78129 15.5493 5.2546 15.5493 4.92975 15.2245C4.6049 14.8996 4.6049 14.3729 4.92975 14.0481ZM10.2235 12.2835C10.5483 11.9586 11.075 11.9586 11.3999 12.2835C11.7247 12.6083 11.7247 13.135 11.3999 13.4599C11.075 13.7847 10.5483 13.7847 10.2235 13.4599C9.89863 13.135 9.89863 12.6083 10.2235 12.2835ZM6.69433 8.75434C7.01918 8.42949 7.54586 8.42949 7.87071 8.75434C8.19556 9.07919 8.19556 9.60588 7.87071 9.93073C7.54586 10.2556 7.01918 10.2556 6.69433 9.93073C6.36948 9.60588 6.36948 9.07919 6.69433 8.75434ZM6.10614 8.16615C6.75583 7.51645 7.8092 7.51645 8.4589 8.16615C9.1086 8.81585 9.1086 9.86922 8.4589 10.5189C7.8092 11.1686 6.75583 11.1686 6.10614 10.5189C5.45644 9.86922 5.45644 8.81585 6.10614 8.16615ZM11.9881 11.6953C11.3384 11.0456 10.285 11.0456 9.63529 11.6953C8.98559 12.345 8.98559 13.3984 9.63529 14.0481C10.285 14.6978 11.3384 14.6978 11.9881 14.0481C12.6378 13.3984 12.6378 12.345 11.9881 11.6953ZM6.69433 13.4599C6.04463 12.8102 4.99126 12.8102 4.34156 13.4599C3.69186 14.1096 3.69186 15.1629 4.34156 15.8126C4.99126 16.4623 6.04463 16.4623 6.69433 15.8126C7.34403 15.1629 7.34403 14.1096 6.69433 13.4599Z" fill="#053D87"/>
</svg>
