<svg width="13" height="20" viewBox="0 0 13 20" fill="none" xmlns="http://www.w3.org/2000/svg">
<path fill-rule="evenodd" clip-rule="evenodd" d="M7.69231 12.3077C7.69231 12.9449 7.17571 13.4615 6.53846 13.4615C5.90121 13.4615 5.38462 12.9449 5.38462 12.3077C5.38462 11.6704 5.90121 11.1538 6.53846 11.1538C7.17571 11.1538 7.69231 11.6704 7.69231 12.3077ZM6.92308 12.3077C6.92308 12.5201 6.75088 12.6923 6.53846 12.6923C6.32604 12.6923 6.15385 12.5201 6.15385 12.3077C6.15385 12.0953 6.32604 11.9231 6.53846 11.9231C6.75088 11.9231 6.92308 12.0953 6.92308 12.3077Z" fill="#053D87"/>
<path fill-rule="evenodd" clip-rule="evenodd" d="M5 14.6154C5 15.2526 4.48341 15.7692 3.84615 15.7692C3.2089 15.7692 2.69231 15.2526 2.69231 14.6154C2.69231 13.9781 3.2089 13.4615 3.84615 13.4615C4.48341 13.4615 5 13.9781 5 14.6154ZM4.23077 14.6154C4.23077 14.8278 4.05857 15 3.84615 15C3.63374 15 3.46154 14.8278 3.46154 14.6154C3.46154 14.403 3.63374 14.2308 3.84615 14.2308C4.05857 14.2308 4.23077 14.403 4.23077 14.6154Z" fill="#053D87"/>
<path fill-rule="evenodd" clip-rule="evenodd" d="M6.53846 18.0769C7.17571 18.0769 7.69231 17.5603 7.69231 16.9231C7.69231 16.2858 7.17571 15.7692 6.53846 15.7692C5.90121 15.7692 5.38462 16.2858 5.38462 16.9231C5.38462 17.5603 5.90121 18.0769 6.53846 18.0769ZM6.92308 16.9231C6.92308 17.1355 6.75088 17.3077 6.53846 17.3077C6.32604 17.3077 6.15385 17.1355 6.15385 16.9231C6.15385 16.7107 6.32604 16.5385 6.53846 16.5385C6.75088 16.5385 6.92308 16.7107 6.92308 16.9231Z" fill="#053D87"/>
<path fill-rule="evenodd" clip-rule="evenodd" d="M10.3846 14.6154C10.3846 15.2526 9.86802 15.7692 9.23077 15.7692C8.59352 15.7692 8.07692 15.2526 8.07692 14.6154C8.07692 13.9781 8.59352 13.4615 9.23077 13.4615C9.86802 13.4615 10.3846 13.9781 10.3846 14.6154ZM9.61538 14.6154C9.61538 14.8278 9.44319 15 9.23077 15C9.01835 15 8.84615 14.8278 8.84615 14.6154C8.84615 14.403 9.01835 14.2308 9.23077 14.2308C9.44319 14.2308 9.61538 14.403 9.61538 14.6154Z" fill="#053D87"/>
<path fill-rule="evenodd" clip-rule="evenodd" d="M1.15385 0C0.941429 0 0.769231 0.172198 0.769231 0.384615C0.769231 0.597033 0.941429 0.769231 1.15385 0.769231H4.23077C4.86802 0.769231 5.38462 1.28583 5.38462 1.92308V4.61538H1.15385C0.516595 4.61538 0 5.13198 0 5.76923V6.53846C0 7.04482 0.326171 7.475 0.779872 7.63035L1.15863 18.885C1.17956 19.5068 1.68968 20 2.31183 20H10.7651C11.3872 20 11.8974 19.5068 11.9183 18.885L12.3077 7.31416V5.76923C12.3077 5.13198 11.7911 4.61538 11.1538 4.61538H6.15385V1.92308C6.15385 0.860991 5.29286 0 4.23077 0H1.15385ZM1.15385 5.38462H11.1538C11.3663 5.38462 11.5385 5.55681 11.5385 5.76923L11.5385 7.30123L11.4907 8.71962C11.3756 8.69646 11.2461 8.67441 11.1054 8.65682C10.5576 8.58835 9.81208 8.584 9.08793 8.87366C7.89757 9.3498 6.71781 9.3498 5.52746 8.87366C4.33851 8.39808 2.85352 8.33411 1.58492 8.68174L1.55162 7.69231H9.23077C9.44319 7.69231 9.61539 7.52011 9.61539 7.30769C9.61539 7.09528 9.44319 6.92308 9.23077 6.92308H1.15385C0.941429 6.92308 0.769231 6.75088 0.769231 6.53846V5.76923C0.769231 5.55681 0.941429 5.38462 1.15385 5.38462ZM11.01 9.42011C11.1848 9.44196 11.3395 9.47192 11.4644 9.50086L11.1495 18.8591C11.1425 19.0664 10.9725 19.2308 10.7651 19.2308H2.31183C2.10444 19.2308 1.9344 19.0664 1.92743 18.8591L1.61164 9.47559C2.75336 9.11526 4.15379 9.15268 5.24177 9.58788C6.61552 10.1374 7.99986 10.1374 9.37361 9.58788C9.93151 9.36472 10.5321 9.36037 11.01 9.42011Z" fill="#053D87"/>
</svg>
