<svg width="18" height="18" viewBox="0 0 18 18" fill="none" xmlns="http://www.w3.org/2000/svg">
<path d="M15.3004 2.6999V15.2999H2.70039V2.6999H15.3004ZM16.2904 0.899902H1.71039C1.26039 0.899902 0.900391 1.2599 0.900391 1.7099V16.2899C0.900391 16.6499 1.26039 17.0999 1.71039 17.0999H16.2904C16.6504 17.0999 17.1004 16.6499 17.1004 16.2899V1.7099C17.1004 1.2599 16.6504 0.899902 16.2904 0.899902V0.899902ZM8.10039 4.4999H13.5004V6.2999H8.10039V4.4999ZM8.10039 8.0999H13.5004V9.8999H8.10039V8.0999ZM8.10039 11.6999H13.5004V13.4999H8.10039V11.6999ZM4.50039 4.4999H6.30039V6.2999H4.50039V4.4999ZM4.50039 8.0999H6.30039V9.8999H4.50039V8.0999ZM4.50039 11.6999H6.30039V13.4999H4.50039V11.6999Z" fill="#FFA645"/>
</svg>
