<svg width="18" height="18" viewBox="0 0 18 18" fill="none" xmlns="http://www.w3.org/2000/svg">
<mask id="path-1-inside-1_61_4151" fill="white">
<path d="M6.14626 2.68097C5.99344 2.52635 5.99344 2.27567 6.14626 2.12106L6.69965 1.56115C6.85246 1.40654 7.10022 1.40654 7.25303 1.56115C7.40585 1.71577 7.40585 1.96645 7.25303 2.12106L6.69965 2.68097C6.54683 2.83558 6.29907 2.83558 6.14626 2.68097Z"/>
<path d="M4.11147 3.95351C3.95866 4.10813 3.95866 4.35881 4.11147 4.51342C4.26428 4.66803 4.51205 4.66803 4.66486 4.51342L5.21825 3.95351C5.37106 3.7989 5.37106 3.54822 5.21825 3.39361C5.06543 3.23899 4.81767 3.23899 4.66486 3.39361L4.11147 3.95351Z"/>
<path d="M6.4593 4.74534C6.30648 4.89995 6.30648 5.15063 6.4593 5.30525C6.61211 5.45986 6.85987 5.45986 7.01268 5.30525L7.56607 4.74534C7.71889 4.59073 7.71889 4.34005 7.56607 4.18543C7.41326 4.03082 7.1655 4.03082 7.01268 4.18543L6.4593 4.74534Z"/>
<path d="M8.80712 2.36986C8.65431 2.52447 8.65431 2.77515 8.80712 2.92977C8.95994 3.08438 9.2077 3.08438 9.36051 2.92977L9.9139 2.36986C10.0667 2.21525 10.0667 1.96457 9.9139 1.80995C9.76108 1.65534 9.51332 1.65534 9.36051 1.80995L8.80712 2.36986Z"/>
<path d="M11.1549 3.72159C11.0021 3.56698 11.0021 3.3163 11.1549 3.16169L11.7083 2.60178C11.8611 2.44717 12.1089 2.44717 12.2617 2.60178C12.4145 2.75639 12.4145 3.00707 12.2617 3.16169L11.7083 3.72159C11.5555 3.87621 11.3078 3.87621 11.1549 3.72159Z"/>
<path d="M12.7202 4.74534C12.5673 4.89995 12.5673 5.15063 12.7202 5.30525C12.873 5.45986 13.1207 5.45986 13.2736 5.30525L13.8269 4.74534C13.9798 4.59073 13.9798 4.34005 13.8269 4.18543C13.6741 4.03082 13.4264 4.03082 13.2736 4.18543L12.7202 4.74534Z"/>
<path d="M9.27669 5.5428C9.12388 5.38819 9.12388 5.13751 9.27669 4.98289L9.83008 4.42299C9.98289 4.26837 10.2307 4.26837 10.3835 4.42299C10.5363 4.5776 10.5363 4.82828 10.3835 4.98289L9.83008 5.5428C9.67727 5.69741 9.42951 5.69741 9.27669 5.5428Z"/>
<path fill-rule="evenodd" clip-rule="evenodd" d="M1.73144 6.97703C0.867177 6.95889 0.162034 6.22242 0.411255 5.38493C0.528566 4.99071 0.687308 4.60479 0.886322 4.23153C1.34232 3.3763 2.00082 2.60434 2.82421 1.95973C3.6476 1.31513 4.61977 0.81049 5.6852 0.474642C6.75063 0.138794 7.88847 -0.0216901 9.03373 0.00235188C10.179 0.0263939 11.3093 0.234492 12.36 0.614765C13.4108 0.995037 14.3614 1.54004 15.1577 2.21864C15.9539 2.89725 16.5802 3.69618 17.0008 4.56982C17.0675 4.70854 17.1289 4.84872 17.1849 4.99014C17.6667 6.20815 16.5578 7.28828 15.2614 7.26106L1.73144 6.97703ZM1.16063 5.61321C1.26237 5.27132 1.40058 4.93478 1.5751 4.60748C1.97496 3.85754 2.55886 3.16866 3.30313 2.58598C4.04763 2.00314 4.93515 1.54044 5.91799 1.23063C6.90072 0.920849 7.95433 0.77169 9.0175 0.794008C10.0807 0.816327 11.1273 1.00958 12.0964 1.36033C13.0657 1.71113 13.9335 2.21067 14.6535 2.82426C15.3732 3.43766 15.9284 4.15046 16.2972 4.91654C16.3557 5.03821 16.4094 5.16088 16.4583 5.28437C16.5756 5.58082 16.5114 5.83833 16.3127 6.05785C16.0954 6.29797 15.7154 6.4786 15.2776 6.46941L1.74767 6.18538C1.52608 6.18073 1.344 6.08321 1.2413 5.96513C1.14916 5.85919 1.12135 5.74522 1.16063 5.61321Z"/>
<path d="M1.56522 14.8327C0.700772 14.8327 3.99196e-10 15.5417 3.99196e-10 16.4163C3.99196e-10 17.291 0.700772 18 1.56522 18H12.913C13.1292 18 13.3043 17.8227 13.3043 17.6041C13.3043 17.3854 13.1292 17.2082 12.913 17.2082H1.56522C1.13299 17.2082 0.782608 16.8537 0.782608 16.4163C0.782608 15.979 1.13299 15.6245 1.56522 15.6245H16.4348C16.867 15.6245 17.2174 15.979 17.2174 16.4163C17.2174 16.8537 16.867 17.2082 16.4348 17.2082H14.8696C14.6534 17.2082 14.4783 17.3854 14.4783 17.6041C14.4783 17.8227 14.6534 18 14.8696 18H16.4348C17.2992 18 18 17.291 18 16.4163C18 15.5417 17.2992 14.8327 16.4348 14.8327H1.56522Z"/>
<path d="M0.654527 8.20513C0.895115 8.42642 1.09242 8.49808 1.25218 8.49808C1.41193 8.49808 1.60924 8.42642 1.84983 8.20513C2.18315 7.89853 2.55976 7.70625 2.97391 7.70625C3.38807 7.70625 3.76468 7.89853 4.098 8.20513C4.33859 8.42642 4.5359 8.49808 4.69565 8.49808C4.85541 8.49808 5.05271 8.42642 5.2933 8.20513C5.62663 7.89853 6.00323 7.70625 6.41739 7.70625C6.83155 7.70625 7.20816 7.89853 7.54148 8.20513C7.78207 8.42642 7.97938 8.49808 8.13913 8.49808C8.29888 8.49808 8.49619 8.42642 8.73678 8.20513C9.07011 7.89853 9.44671 7.70625 9.86087 7.70625C10.275 7.70625 10.6516 7.89853 10.985 8.20513C11.2255 8.42642 11.4229 8.49808 11.5826 8.49808C11.7424 8.49808 11.9397 8.42642 12.1803 8.20513C12.5136 7.89853 12.8902 7.70625 13.3043 7.70625C13.7185 7.70625 14.0951 7.89853 14.4284 8.20513C14.669 8.42642 14.8663 8.49808 15.0261 8.49808C15.1858 8.49808 15.3831 8.42642 15.6237 8.20513C15.9571 7.89853 16.3337 7.70625 16.7478 7.70625C17.162 7.70625 17.5386 7.89853 17.8719 8.20513C18.0318 8.35221 18.0436 8.6026 17.8982 8.7644C17.7529 8.92619 17.5054 8.93811 17.3455 8.79103C17.1049 8.56974 16.9076 8.49808 16.7478 8.49808C16.5881 8.49808 16.3908 8.56974 16.1502 8.79103C15.8168 9.09762 15.4402 9.2899 15.0261 9.2899C14.6119 9.2899 14.2353 9.09762 13.902 8.79103C13.6614 8.56974 13.4641 8.49808 13.3043 8.49808C13.1446 8.49808 12.9473 8.56974 12.7067 8.79103C12.3734 9.09762 11.9968 9.2899 11.5826 9.2899C11.1684 9.2899 10.7918 9.09762 10.4585 8.79103C10.2179 8.56974 10.0206 8.49808 9.86087 8.49808C9.70112 8.49808 9.50381 8.56974 9.26322 8.79103C8.9299 9.09762 8.55329 9.2899 8.13913 9.2899C7.72497 9.2899 7.34837 9.09762 7.01504 8.79103C6.77445 8.56974 6.57715 8.49808 6.41739 8.49808C6.25764 8.49808 6.06033 8.56974 5.81974 8.79103C5.48642 9.09762 5.10981 9.2899 4.69565 9.2899C4.28149 9.2899 3.90489 9.09762 3.57156 8.79103C3.33098 8.56974 3.13367 8.49808 2.97391 8.49808C2.81416 8.49808 2.61685 8.56974 2.37627 8.79103C2.04294 9.09762 1.66634 9.2899 1.25218 9.2899C0.838017 9.2899 0.461412 9.09762 0.128087 8.79103C-0.0318222 8.64395 -0.0436069 8.39355 0.101765 8.23176C0.247138 8.06996 0.494617 8.05804 0.654527 8.20513Z"/>
<path d="M1.56522 11.2695C1.56522 11.0508 1.74041 10.8736 1.95652 10.8736H16.8261C17.0422 10.8736 17.2174 10.6963 17.2174 10.4776C17.2174 10.259 17.0422 10.0817 16.8261 10.0817H1.95652C1.30819 10.0817 0.782611 10.6135 0.782611 11.2695C0.782611 11.9254 1.30819 12.4572 1.95652 12.4572H16.0435C16.2596 12.4572 16.4348 12.6345 16.4348 12.8531C16.4348 13.0718 16.2596 13.249 16.0435 13.249H1.17392C0.957804 13.249 0.782611 13.4263 0.782611 13.645C0.782611 13.8636 0.957804 14.0409 1.17392 14.0409H16.0435C16.6918 14.0409 17.2174 13.5091 17.2174 12.8531C17.2174 12.1972 16.6918 11.6654 16.0435 11.6654H1.95652C1.74041 11.6654 1.56522 11.4881 1.56522 11.2695Z"/>
</mask>
<path d="M6.14626 2.68097C5.99344 2.52635 5.99344 2.27567 6.14626 2.12106L6.69965 1.56115C6.85246 1.40654 7.10022 1.40654 7.25303 1.56115C7.40585 1.71577 7.40585 1.96645 7.25303 2.12106L6.69965 2.68097C6.54683 2.83558 6.29907 2.83558 6.14626 2.68097Z" fill="#053D87"/>
<path d="M4.11147 3.95351C3.95866 4.10813 3.95866 4.35881 4.11147 4.51342C4.26428 4.66803 4.51205 4.66803 4.66486 4.51342L5.21825 3.95351C5.37106 3.7989 5.37106 3.54822 5.21825 3.39361C5.06543 3.23899 4.81767 3.23899 4.66486 3.39361L4.11147 3.95351Z" fill="#053D87"/>
<path d="M6.4593 4.74534C6.30648 4.89995 6.30648 5.15063 6.4593 5.30525C6.61211 5.45986 6.85987 5.45986 7.01268 5.30525L7.56607 4.74534C7.71889 4.59073 7.71889 4.34005 7.56607 4.18543C7.41326 4.03082 7.1655 4.03082 7.01268 4.18543L6.4593 4.74534Z" fill="#053D87"/>
<path d="M8.80712 2.36986C8.65431 2.52447 8.65431 2.77515 8.80712 2.92977C8.95994 3.08438 9.2077 3.08438 9.36051 2.92977L9.9139 2.36986C10.0667 2.21525 10.0667 1.96457 9.9139 1.80995C9.76108 1.65534 9.51332 1.65534 9.36051 1.80995L8.80712 2.36986Z" fill="#053D87"/>
<path d="M11.1549 3.72159C11.0021 3.56698 11.0021 3.3163 11.1549 3.16169L11.7083 2.60178C11.8611 2.44717 12.1089 2.44717 12.2617 2.60178C12.4145 2.75639 12.4145 3.00707 12.2617 3.16169L11.7083 3.72159C11.5555 3.87621 11.3078 3.87621 11.1549 3.72159Z" fill="#053D87"/>
<path d="M12.7202 4.74534C12.5673 4.89995 12.5673 5.15063 12.7202 5.30525C12.873 5.45986 13.1207 5.45986 13.2736 5.30525L13.8269 4.74534C13.9798 4.59073 13.9798 4.34005 13.8269 4.18543C13.6741 4.03082 13.4264 4.03082 13.2736 4.18543L12.7202 4.74534Z" fill="#053D87"/>
<path d="M9.27669 5.5428C9.12388 5.38819 9.12388 5.13751 9.27669 4.98289L9.83008 4.42299C9.98289 4.26837 10.2307 4.26837 10.3835 4.42299C10.5363 4.5776 10.5363 4.82828 10.3835 4.98289L9.83008 5.5428C9.67727 5.69741 9.42951 5.69741 9.27669 5.5428Z" fill="#053D87"/>
<path fill-rule="evenodd" clip-rule="evenodd" d="M1.73144 6.97703C0.867177 6.95889 0.162034 6.22242 0.411255 5.38493C0.528566 4.99071 0.687308 4.60479 0.886322 4.23153C1.34232 3.3763 2.00082 2.60434 2.82421 1.95973C3.6476 1.31513 4.61977 0.81049 5.6852 0.474642C6.75063 0.138794 7.88847 -0.0216901 9.03373 0.00235188C10.179 0.0263939 11.3093 0.234492 12.36 0.614765C13.4108 0.995037 14.3614 1.54004 15.1577 2.21864C15.9539 2.89725 16.5802 3.69618 17.0008 4.56982C17.0675 4.70854 17.1289 4.84872 17.1849 4.99014C17.6667 6.20815 16.5578 7.28828 15.2614 7.26106L1.73144 6.97703ZM1.16063 5.61321C1.26237 5.27132 1.40058 4.93478 1.5751 4.60748C1.97496 3.85754 2.55886 3.16866 3.30313 2.58598C4.04763 2.00314 4.93515 1.54044 5.91799 1.23063C6.90072 0.920849 7.95433 0.77169 9.0175 0.794008C10.0807 0.816327 11.1273 1.00958 12.0964 1.36033C13.0657 1.71113 13.9335 2.21067 14.6535 2.82426C15.3732 3.43766 15.9284 4.15046 16.2972 4.91654C16.3557 5.03821 16.4094 5.16088 16.4583 5.28437C16.5756 5.58082 16.5114 5.83833 16.3127 6.05785C16.0954 6.29797 15.7154 6.4786 15.2776 6.46941L1.74767 6.18538C1.52608 6.18073 1.344 6.08321 1.2413 5.96513C1.14916 5.85919 1.12135 5.74522 1.16063 5.61321Z" fill="#053D87"/>
<path d="M1.56522 14.8327C0.700772 14.8327 3.99196e-10 15.5417 3.99196e-10 16.4163C3.99196e-10 17.291 0.700772 18 1.56522 18H12.913C13.1292 18 13.3043 17.8227 13.3043 17.6041C13.3043 17.3854 13.1292 17.2082 12.913 17.2082H1.56522C1.13299 17.2082 0.782608 16.8537 0.782608 16.4163C0.782608 15.979 1.13299 15.6245 1.56522 15.6245H16.4348C16.867 15.6245 17.2174 15.979 17.2174 16.4163C17.2174 16.8537 16.867 17.2082 16.4348 17.2082H14.8696C14.6534 17.2082 14.4783 17.3854 14.4783 17.6041C14.4783 17.8227 14.6534 18 14.8696 18H16.4348C17.2992 18 18 17.291 18 16.4163C18 15.5417 17.2992 14.8327 16.4348 14.8327H1.56522Z" fill="#053D87"/>
<path d="M0.654527 8.20513C0.895115 8.42642 1.09242 8.49808 1.25218 8.49808C1.41193 8.49808 1.60924 8.42642 1.84983 8.20513C2.18315 7.89853 2.55976 7.70625 2.97391 7.70625C3.38807 7.70625 3.76468 7.89853 4.098 8.20513C4.33859 8.42642 4.5359 8.49808 4.69565 8.49808C4.85541 8.49808 5.05271 8.42642 5.2933 8.20513C5.62663 7.89853 6.00323 7.70625 6.41739 7.70625C6.83155 7.70625 7.20816 7.89853 7.54148 8.20513C7.78207 8.42642 7.97938 8.49808 8.13913 8.49808C8.29888 8.49808 8.49619 8.42642 8.73678 8.20513C9.07011 7.89853 9.44671 7.70625 9.86087 7.70625C10.275 7.70625 10.6516 7.89853 10.985 8.20513C11.2255 8.42642 11.4229 8.49808 11.5826 8.49808C11.7424 8.49808 11.9397 8.42642 12.1803 8.20513C12.5136 7.89853 12.8902 7.70625 13.3043 7.70625C13.7185 7.70625 14.0951 7.89853 14.4284 8.20513C14.669 8.42642 14.8663 8.49808 15.0261 8.49808C15.1858 8.49808 15.3831 8.42642 15.6237 8.20513C15.9571 7.89853 16.3337 7.70625 16.7478 7.70625C17.162 7.70625 17.5386 7.89853 17.8719 8.20513C18.0318 8.35221 18.0436 8.6026 17.8982 8.7644C17.7529 8.92619 17.5054 8.93811 17.3455 8.79103C17.1049 8.56974 16.9076 8.49808 16.7478 8.49808C16.5881 8.49808 16.3908 8.56974 16.1502 8.79103C15.8168 9.09762 15.4402 9.2899 15.0261 9.2899C14.6119 9.2899 14.2353 9.09762 13.902 8.79103C13.6614 8.56974 13.4641 8.49808 13.3043 8.49808C13.1446 8.49808 12.9473 8.56974 12.7067 8.79103C12.3734 9.09762 11.9968 9.2899 11.5826 9.2899C11.1684 9.2899 10.7918 9.09762 10.4585 8.79103C10.2179 8.56974 10.0206 8.49808 9.86087 8.49808C9.70112 8.49808 9.50381 8.56974 9.26322 8.79103C8.9299 9.09762 8.55329 9.2899 8.13913 9.2899C7.72497 9.2899 7.34837 9.09762 7.01504 8.79103C6.77445 8.56974 6.57715 8.49808 6.41739 8.49808C6.25764 8.49808 6.06033 8.56974 5.81974 8.79103C5.48642 9.09762 5.10981 9.2899 4.69565 9.2899C4.28149 9.2899 3.90489 9.09762 3.57156 8.79103C3.33098 8.56974 3.13367 8.49808 2.97391 8.49808C2.81416 8.49808 2.61685 8.56974 2.37627 8.79103C2.04294 9.09762 1.66634 9.2899 1.25218 9.2899C0.838017 9.2899 0.461412 9.09762 0.128087 8.79103C-0.0318222 8.64395 -0.0436069 8.39355 0.101765 8.23176C0.247138 8.06996 0.494617 8.05804 0.654527 8.20513Z" fill="#053D87"/>
<path d="M1.56522 11.2695C1.56522 11.0508 1.74041 10.8736 1.95652 10.8736H16.8261C17.0422 10.8736 17.2174 10.6963 17.2174 10.4776C17.2174 10.259 17.0422 10.0817 16.8261 10.0817H1.95652C1.30819 10.0817 0.782611 10.6135 0.782611 11.2695C0.782611 11.9254 1.30819 12.4572 1.95652 12.4572H16.0435C16.2596 12.4572 16.4348 12.6345 16.4348 12.8531C16.4348 13.0718 16.2596 13.249 16.0435 13.249H1.17392C0.957804 13.249 0.782611 13.4263 0.782611 13.645C0.782611 13.8636 0.957804 14.0409 1.17392 14.0409H16.0435C16.6918 14.0409 17.2174 13.5091 17.2174 12.8531C17.2174 12.1972 16.6918 11.6654 16.0435 11.6654H1.95652C1.74041 11.6654 1.56522 11.4881 1.56522 11.2695Z" fill="#053D87"/>
<path d="M6.14626 2.68097C5.99344 2.52635 5.99344 2.27567 6.14626 2.12106L6.69965 1.56115C6.85246 1.40654 7.10022 1.40654 7.25303 1.56115C7.40585 1.71577 7.40585 1.96645 7.25303 2.12106L6.69965 2.68097C6.54683 2.83558 6.29907 2.83558 6.14626 2.68097Z" stroke="#053D87" stroke-width="7.43124" mask="url(#path-1-inside-1_61_4151)"/>
<path d="M4.11147 3.95351C3.95866 4.10813 3.95866 4.35881 4.11147 4.51342C4.26428 4.66803 4.51205 4.66803 4.66486 4.51342L5.21825 3.95351C5.37106 3.7989 5.37106 3.54822 5.21825 3.39361C5.06543 3.23899 4.81767 3.23899 4.66486 3.39361L4.11147 3.95351Z" stroke="#053D87" stroke-width="7.43124" mask="url(#path-1-inside-1_61_4151)"/>
<path d="M6.4593 4.74534C6.30648 4.89995 6.30648 5.15063 6.4593 5.30525C6.61211 5.45986 6.85987 5.45986 7.01268 5.30525L7.56607 4.74534C7.71889 4.59073 7.71889 4.34005 7.56607 4.18543C7.41326 4.03082 7.1655 4.03082 7.01268 4.18543L6.4593 4.74534Z" stroke="#053D87" stroke-width="7.43124" mask="url(#path-1-inside-1_61_4151)"/>
<path d="M8.80712 2.36986C8.65431 2.52447 8.65431 2.77515 8.80712 2.92977C8.95994 3.08438 9.2077 3.08438 9.36051 2.92977L9.9139 2.36986C10.0667 2.21525 10.0667 1.96457 9.9139 1.80995C9.76108 1.65534 9.51332 1.65534 9.36051 1.80995L8.80712 2.36986Z" stroke="#053D87" stroke-width="7.43124" mask="url(#path-1-inside-1_61_4151)"/>
<path d="M11.1549 3.72159C11.0021 3.56698 11.0021 3.3163 11.1549 3.16169L11.7083 2.60178C11.8611 2.44717 12.1089 2.44717 12.2617 2.60178C12.4145 2.75639 12.4145 3.00707 12.2617 3.16169L11.7083 3.72159C11.5555 3.87621 11.3078 3.87621 11.1549 3.72159Z" stroke="#053D87" stroke-width="7.43124" mask="url(#path-1-inside-1_61_4151)"/>
<path d="M12.7202 4.74534C12.5673 4.89995 12.5673 5.15063 12.7202 5.30525C12.873 5.45986 13.1207 5.45986 13.2736 5.30525L13.8269 4.74534C13.9798 4.59073 13.9798 4.34005 13.8269 4.18543C13.6741 4.03082 13.4264 4.03082 13.2736 4.18543L12.7202 4.74534Z" stroke="#053D87" stroke-width="7.43124" mask="url(#path-1-inside-1_61_4151)"/>
<path d="M9.27669 5.5428C9.12388 5.38819 9.12388 5.13751 9.27669 4.98289L9.83008 4.42299C9.98289 4.26837 10.2307 4.26837 10.3835 4.42299C10.5363 4.5776 10.5363 4.82828 10.3835 4.98289L9.83008 5.5428C9.67727 5.69741 9.42951 5.69741 9.27669 5.5428Z" stroke="#053D87" stroke-width="7.43124" mask="url(#path-1-inside-1_61_4151)"/>
<path fill-rule="evenodd" clip-rule="evenodd" d="M1.73144 6.97703C0.867177 6.95889 0.162034 6.22242 0.411255 5.38493C0.528566 4.99071 0.687308 4.60479 0.886322 4.23153C1.34232 3.3763 2.00082 2.60434 2.82421 1.95973C3.6476 1.31513 4.61977 0.81049 5.6852 0.474642C6.75063 0.138794 7.88847 -0.0216901 9.03373 0.00235188C10.179 0.0263939 11.3093 0.234492 12.36 0.614765C13.4108 0.995037 14.3614 1.54004 15.1577 2.21864C15.9539 2.89725 16.5802 3.69618 17.0008 4.56982C17.0675 4.70854 17.1289 4.84872 17.1849 4.99014C17.6667 6.20815 16.5578 7.28828 15.2614 7.26106L1.73144 6.97703ZM1.16063 5.61321C1.26237 5.27132 1.40058 4.93478 1.5751 4.60748C1.97496 3.85754 2.55886 3.16866 3.30313 2.58598C4.04763 2.00314 4.93515 1.54044 5.91799 1.23063C6.90072 0.920849 7.95433 0.77169 9.0175 0.794008C10.0807 0.816327 11.1273 1.00958 12.0964 1.36033C13.0657 1.71113 13.9335 2.21067 14.6535 2.82426C15.3732 3.43766 15.9284 4.15046 16.2972 4.91654C16.3557 5.03821 16.4094 5.16088 16.4583 5.28437C16.5756 5.58082 16.5114 5.83833 16.3127 6.05785C16.0954 6.29797 15.7154 6.4786 15.2776 6.46941L1.74767 6.18538C1.52608 6.18073 1.344 6.08321 1.2413 5.96513C1.14916 5.85919 1.12135 5.74522 1.16063 5.61321Z" stroke="#053D87" stroke-width="7.43124" mask="url(#path-1-inside-1_61_4151)"/>
<path d="M1.56522 14.8327C0.700772 14.8327 3.99196e-10 15.5417 3.99196e-10 16.4163C3.99196e-10 17.291 0.700772 18 1.56522 18H12.913C13.1292 18 13.3043 17.8227 13.3043 17.6041C13.3043 17.3854 13.1292 17.2082 12.913 17.2082H1.56522C1.13299 17.2082 0.782608 16.8537 0.782608 16.4163C0.782608 15.979 1.13299 15.6245 1.56522 15.6245H16.4348C16.867 15.6245 17.2174 15.979 17.2174 16.4163C17.2174 16.8537 16.867 17.2082 16.4348 17.2082H14.8696C14.6534 17.2082 14.4783 17.3854 14.4783 17.6041C14.4783 17.8227 14.6534 18 14.8696 18H16.4348C17.2992 18 18 17.291 18 16.4163C18 15.5417 17.2992 14.8327 16.4348 14.8327H1.56522Z" stroke="#053D87" stroke-width="7.43124" mask="url(#path-1-inside-1_61_4151)"/>
<path d="M0.654527 8.20513C0.895115 8.42642 1.09242 8.49808 1.25218 8.49808C1.41193 8.49808 1.60924 8.42642 1.84983 8.20513C2.18315 7.89853 2.55976 7.70625 2.97391 7.70625C3.38807 7.70625 3.76468 7.89853 4.098 8.20513C4.33859 8.42642 4.5359 8.49808 4.69565 8.49808C4.85541 8.49808 5.05271 8.42642 5.2933 8.20513C5.62663 7.89853 6.00323 7.70625 6.41739 7.70625C6.83155 7.70625 7.20816 7.89853 7.54148 8.20513C7.78207 8.42642 7.97938 8.49808 8.13913 8.49808C8.29888 8.49808 8.49619 8.42642 8.73678 8.20513C9.07011 7.89853 9.44671 7.70625 9.86087 7.70625C10.275 7.70625 10.6516 7.89853 10.985 8.20513C11.2255 8.42642 11.4229 8.49808 11.5826 8.49808C11.7424 8.49808 11.9397 8.42642 12.1803 8.20513C12.5136 7.89853 12.8902 7.70625 13.3043 7.70625C13.7185 7.70625 14.0951 7.89853 14.4284 8.20513C14.669 8.42642 14.8663 8.49808 15.0261 8.49808C15.1858 8.49808 15.3831 8.42642 15.6237 8.20513C15.9571 7.89853 16.3337 7.70625 16.7478 7.70625C17.162 7.70625 17.5386 7.89853 17.8719 8.20513C18.0318 8.35221 18.0436 8.6026 17.8982 8.7644C17.7529 8.92619 17.5054 8.93811 17.3455 8.79103C17.1049 8.56974 16.9076 8.49808 16.7478 8.49808C16.5881 8.49808 16.3908 8.56974 16.1502 8.79103C15.8168 9.09762 15.4402 9.2899 15.0261 9.2899C14.6119 9.2899 14.2353 9.09762 13.902 8.79103C13.6614 8.56974 13.4641 8.49808 13.3043 8.49808C13.1446 8.49808 12.9473 8.56974 12.7067 8.79103C12.3734 9.09762 11.9968 9.2899 11.5826 9.2899C11.1684 9.2899 10.7918 9.09762 10.4585 8.79103C10.2179 8.56974 10.0206 8.49808 9.86087 8.49808C9.70112 8.49808 9.50381 8.56974 9.26322 8.79103C8.9299 9.09762 8.55329 9.2899 8.13913 9.2899C7.72497 9.2899 7.34837 9.09762 7.01504 8.79103C6.77445 8.56974 6.57715 8.49808 6.41739 8.49808C6.25764 8.49808 6.06033 8.56974 5.81974 8.79103C5.48642 9.09762 5.10981 9.2899 4.69565 9.2899C4.28149 9.2899 3.90489 9.09762 3.57156 8.79103C3.33098 8.56974 3.13367 8.49808 2.97391 8.49808C2.81416 8.49808 2.61685 8.56974 2.37627 8.79103C2.04294 9.09762 1.66634 9.2899 1.25218 9.2899C0.838017 9.2899 0.461412 9.09762 0.128087 8.79103C-0.0318222 8.64395 -0.0436069 8.39355 0.101765 8.23176C0.247138 8.06996 0.494617 8.05804 0.654527 8.20513Z" stroke="#053D87" stroke-width="7.43124" mask="url(#path-1-inside-1_61_4151)"/>
<path d="M1.56522 11.2695C1.56522 11.0508 1.74041 10.8736 1.95652 10.8736H16.8261C17.0422 10.8736 17.2174 10.6963 17.2174 10.4776C17.2174 10.259 17.0422 10.0817 16.8261 10.0817H1.95652C1.30819 10.0817 0.782611 10.6135 0.782611 11.2695C0.782611 11.9254 1.30819 12.4572 1.95652 12.4572H16.0435C16.2596 12.4572 16.4348 12.6345 16.4348 12.8531C16.4348 13.0718 16.2596 13.249 16.0435 13.249H1.17392C0.957804 13.249 0.782611 13.4263 0.782611 13.645C0.782611 13.8636 0.957804 14.0409 1.17392 14.0409H16.0435C16.6918 14.0409 17.2174 13.5091 17.2174 12.8531C17.2174 12.1972 16.6918 11.6654 16.0435 11.6654H1.95652C1.74041 11.6654 1.56522 11.4881 1.56522 11.2695Z" stroke="#053D87" stroke-width="7.43124" mask="url(#path-1-inside-1_61_4151)"/>
</svg>
